<?xml version="1.0" standalone="no"?>
<!DOCTYPE svg PUBLIC "-//W3C//DTD SVG 1.1//EN" "http://www.w3.org/Graphics/SVG/1.1/DTD/svg11.dtd" >
<svg xmlns="http://www.w3.org/2000/svg">
<metadata>
This is a custom SVG webfont generated by Font Squirrel.
Copyright   : 2007  pheist Stefanie Koerner Update 2008  wwwpheistnet
</metadata>
<defs>
<font id="FippsRegular" horiz-adv-x="2048" >
<font-face units-per-em="2048" ascent="1638" descent="-410" />
<missing-glyph horiz-adv-x="1024" />
<glyph unicode=" "  horiz-adv-x="1024" />
<glyph unicode="&#x09;" horiz-adv-x="1024" />
<glyph unicode="&#xa0;" horiz-adv-x="1024" />
<glyph unicode="!" horiz-adv-x="1024" d="M0 256v2048h256v256h512v-256h256v-2304h-768v256h-256zM256 512h256v256h-256v-256zM256 1024h256v1280h-256v-1280z" />
<glyph unicode="&#x22;" horiz-adv-x="1536" d="M0 1536v768h256v256h1024v-256h256v-1024h-1280v256h-256zM256 1792h256v512h-256v-512zM768 1792h256v512h-256v-512z" />
<glyph unicode="#" d="M0 512v1024h256v256h256v256h1024v-256h256v-256h256v-1024h-256v-256h-256v-256h-1024v256h-256v256h-256zM256 768h256v-256h256v256h256v-256h256v256h256v256h-256v256h256v256h-256v256h-256v-256h-256v256h-256v-256h-256v-256h256v-256h-256v-256zM768 1024v256 h256v-256h-256z" />
<glyph unicode="$" d="M0 256v512h256v256h-256v1024h256v256h256v256h256v256h512v-256h512v-256h256v-768h-256v-256h256v-1024h-256v-256h-512v-256h-512v256h-512v256h-256zM256 512h512v-256h256v256h256v256h-256v512h256v256h-256v512h512v256h-512v256h-256v-256h-256v-256h256v-512 h-256v-256h256v-512h-512v-256zM256 1536h256v512h-256v-512zM1280 768h256v512h-256v-512z" />
<glyph unicode="&#x26;" d="M0 512v1536h256v256h256v256h768v-256h256v-512h256v-256h256v-512h-256v-256h256v-768h-1536v256h-256v256h-256zM256 768h256v512h-256v-512zM256 1536h256v512h-256v-512zM512 512h512v256h-512v-256zM512 1280h512v-512h256v512h256v256h-256v256h-256v-256h-512 v-256zM512 2048h512v256h-512v-256zM1280 512h256v256h-256v-256z" />
<glyph unicode="'" horiz-adv-x="1024" d="M0 1536v768h256v256h512v-256h256v-1024h-768v256h-256zM256 1792h256v512h-256v-512z" />
<glyph unicode="(" horiz-adv-x="1280" d="M0 512v1536h256v256h256v256h512v-256h256v-512h-256v-1024h256v-768h-768v256h-256v256h-256zM256 768h256v1280h-256v-1280zM512 512h256v256h-256v-256zM512 2048h256v256h-256v-256z" />
<glyph unicode=")" horiz-adv-x="1280" d="M0 256v512h256v1024h-256v512h256v256h512v-256h256v-256h256v-1536h-256v-256h-256v-256h-512v256h-256zM256 512h256v256h-256v-256zM256 2048h256v256h-256v-256zM512 768h256v1280h-256v-1280z" />
<glyph unicode="*" d="M0 512v1024h256v256h512v256h512v-256h512v-256h256v-1024h-256v-256h-256v-256h-768v256h-512v256h-256zM256 768h256v256h-256v-256zM256 1280h256v256h-256v-256zM512 1024h256v-512h256v512h256v256h-256v512h-256v-512h-256v-256zM1280 768h256v256h-256v-256z M1280 1280h256v256h-256v-256z" />
<glyph unicode="+" horiz-adv-x="1536" d="M0 1024v512h256v256h256v256h512v-256h256v-256h256v-512h-256v-256h-256v-256h-512v256h-256v256h-256zM256 1280h256v-256h256v256h256v256h-256v256h-256v-256h-256v-256z" />
<glyph unicode="," horiz-adv-x="1024" d="M-256 -256v512h256v512h256v256h512v-256h256v-768h-256v-256h-256v-256h-512v256h-256zM0 0h256v256h-256v-256zM256 256h256v512h-256v-512z" />
<glyph unicode="-" horiz-adv-x="1536" d="M0 1024v512h256v256h1024v-256h256v-768h-1280v256h-256zM256 1280h768v256h-768v-256z" />
<glyph unicode="." horiz-adv-x="1024" d="M0 256v512h256v256h512v-256h256v-768h-768v256h-256zM256 512h256v256h-256v-256z" />
<glyph unicode="/" horiz-adv-x="1792" d="M0 256v768h256v512h256v512h256v512h256v256h512v-256h256v-768h-256v-512h-256v-512h-256v-768h-768v256h-256zM256 512h256v512h-256v-512zM512 1024h256v512h-256v-512zM768 1536h256v512h-256v-512zM1024 2048h256v512h-256v-512z" />
<glyph unicode="0" d="M0 512v1536h256v256h256v256h1024v-256h256v-256h256v-1792h-256v-256h-1280v256h-256v256h-256zM256 768h256v1280h-256v-1280zM512 512h768v256h-768v-256zM512 2048h768v256h-768v-256zM768 1280h256v256h-256v-256zM1280 768h256v1280h-256v-1280z" />
<glyph unicode="1" horiz-adv-x="1280" d="M0 1536v512h256v256h256v256h512v-256h256v-2304h-768v256h-256v1280h-256zM256 1792h256v-1280h256v1792h-256v-256h-256v-256z" />
<glyph unicode="2" d="M0 256v768h256v256h256v512h-512v512h256v256h1280v-256h256v-256h256v-512h-256v-256h-256v-256h256v-256h256v-768h-1792v256h-256zM256 512h1280v256h-1024v256h-256v-512zM256 2048h1024v256h-1024v-256zM512 1024h512v256h-512v-256zM1024 1280h256v256h-256v-256z M1280 1536h256v512h-256v-512z" />
<glyph unicode="3" d="M0 256v512h256v256h256v512h-256v256h-256v512h256v256h1280v-256h256v-256h256v-512h-256v-256h256v-768h-256v-256h-256v-256h-1280v256h-256zM256 512h1024v256h-1024v-256zM256 2048h1024v256h-1024v-256zM768 1280h512v256h-512v-256zM1280 768h256v512h-256v-512z M1280 1536h256v512h-256v-512z" />
<glyph unicode="4" d="M0 1024v1280h256v256h512v-256h512v256h512v-256h256v-2304h-768v256h-256v512h-768v256h-256zM256 1280h1024v-768h256v1792h-256v-768h-768v768h-256v-1024z" />
<glyph unicode="5" d="M0 256v512h256v256h-256v1536h1792v-256h256v-512h-512v-256h256v-256h256v-768h-256v-256h-256v-256h-1280v256h-256zM256 512h1024v256h-1024v-256zM256 1280h1024v256h-768v512h1024v256h-1280v-1024zM1280 768h256v512h-256v-512z" />
<glyph unicode="6" d="M0 512v1536h256v256h256v256h1024v-256h256v-512h-512v-256h512v-256h256v-768h-256v-256h-256v-256h-1024v256h-256v256h-256zM256 768h256v512h768v256h-768v512h-256v-1280zM512 512h768v256h-768v-256zM512 2048h768v256h-768v-256zM1280 768h256v512h-256v-512z" />
<glyph unicode="7" horiz-adv-x="1792" d="M-256 1792v512h256v256h1536v-256h256v-768h-256v-256h-256v-512h-256v-768h-768v256h-256v768h256v512h256v256h-768zM0 2048h1024v-256h256v512h-1280v-256zM256 512h256v512h-256v-512zM512 1024h256v512h-256v-512zM768 1536h256v256h-256v-256z" />
<glyph unicode="8" d="M0 512v1536h256v256h256v256h1024v-256h256v-256h256v-512h-256v-256h256v-768h-256v-256h-256v-256h-1024v256h-256v256h-256zM256 768h256v512h-256v-512zM256 1536h256v512h-256v-512zM512 512h768v256h-768v-256zM512 1280h768v256h-768v-256zM512 2048h768v256h-768 v-256zM1280 768h256v512h-256v-512zM1280 1536h256v512h-256v-512z" />
<glyph unicode="9" d="M0 1280v768h256v256h256v256h1024v-256h256v-256h256v-1536h-256v-256h-256v-256h-1024v256h-256v512h256v256h-256v256h-256zM256 1536h256v512h-256v-512zM512 512h768v256h-768v-256zM512 1280h768v-512h256v1280h-256v-512h-768v-256zM512 2048h768v256h-768v-256z " />
<glyph unicode=":" horiz-adv-x="1024" d="M0 512v1024h256v256h512v-256h256v-1280h-768v256h-256zM256 768h256v256h-256v-256zM256 1280h256v256h-256v-256z" />
<glyph unicode=";" horiz-adv-x="1024" d="M-256 -256v512h256v1024h256v256h512v-256h256v-1280h-256v-256h-256v-256h-512v256h-256zM0 0h256v256h-256v-256zM256 256h256v512h-256v-512zM256 1024h256v256h-256v-256z" />
<glyph unicode="&#x3c;" horiz-adv-x="1536" d="M0 768v512h256v256h256v256h256v256h512v-256h256v-512h-256v-512h256v-768h-768v256h-256v256h-256v256h-256zM256 1024h256v256h-256v-256zM512 768h256v256h-256v-256zM512 1280h256v256h-256v-256zM768 512h256v256h-256v-256zM768 1536h256v256h-256v-256z" />
<glyph unicode="=" horiz-adv-x="1536" d="M0 768v1024h256v256h1024v-256h256v-1280h-1280v256h-256zM256 1024h768v256h-768v-256zM256 1536h768v256h-768v-256z" />
<glyph unicode="&#x3e;" horiz-adv-x="1536" d="M0 256v512h256v512h-256v512h256v256h512v-256h256v-256h256v-256h256v-512h-256v-256h-256v-256h-256v-256h-512v256h-256zM256 512h256v256h-256v-256zM256 1536h256v256h-256v-256zM512 768h256v256h-256v-256zM512 1280h256v256h-256v-256zM768 1024h256v256h-256 v-256z" />
<glyph unicode="?" horiz-adv-x="2304" d="M0 1536v512h256v256h256v256h1280v-256h256v-256h256v-768h-256v-256h-256v-1024h-768v256h-256v1024h-512v256h-256zM256 1792h256v256h-256v-256zM512 2048h1024v256h-1024v-256zM1024 512h256v256h-256v-256zM1024 1024h256v256h-256v-256zM1280 1280h256v256h-256 v-256zM1536 1536h256v512h-256v-512z" />
<glyph unicode="@" horiz-adv-x="2560" d="M0 512v1024h256v256h256v256h256v256h1280v-256h256v-256h256v-2048h-1792v256h-256v256h-256v256h-256zM256 768h256v768h-256v-768zM512 512h256v256h-256v-256zM512 1536h256v256h-256v-256zM768 256h1280v256h-1280v-256zM768 1792h1024v256h-1024v-256zM1024 1024 h256v256h-256v-256zM1280 768h768v1024h-256v-256h-512v-256h512v-256h-512v-256z" />
<glyph unicode="A" d="M0 256v1792h256v256h256v256h1024v-256h256v-256h256v-2048h-768v256h-256v-256h-768v256h-256zM256 512h256v768h768v-768h256v1536h-256v-512h-768v512h-256v-1536zM512 2048h768v256h-768v-256z" />
<glyph unicode="B" d="M0 256v2048h256v256h1280v-256h256v-256h256v-1792h-256v-256h-1536v256h-256zM256 512h1024v256h-768v512h768v256h-768v512h768v256h-1024v-1792zM1280 768h256v512h-256v-512zM1280 1536h256v512h-256v-512z" />
<glyph unicode="C" d="M0 512v1536h256v256h256v256h1280v-256h256v-768h-768v-512h512v-256h256v-768h-1536v256h-256v256h-256zM256 768h256v1280h-256v-1280zM512 512h1024v256h-1024v-256zM512 2048h1024v256h-1024v-256z" />
<glyph unicode="D" d="M0 256v2048h256v256h1280v-256h256v-256h256v-1792h-256v-256h-1536v256h-256zM256 512h1024v256h-768v1280h768v256h-1024v-1792zM1280 768h256v1280h-256v-1280z" />
<glyph unicode="E" horiz-adv-x="1792" d="M0 256v2048h256v256h1280v-256h256v-512h-256v-256h256v-512h-256v-256h256v-768h-1536v256h-256zM256 512h1024v256h-768v512h768v256h-768v512h768v256h-1024v-1792z" />
<glyph unicode="F" horiz-adv-x="1792" d="M0 256v2048h256v256h1280v-256h256v-512h-256v-256h256v-768h-768v-768h-768v256h-256zM256 512h256v768h768v256h-768v512h768v256h-1024v-1792z" />
<glyph unicode="G" d="M0 512v1536h256v256h256v256h1280v-256h256v-2048h-256v-256h-1280v256h-256v256h-256zM256 768h256v1280h-256v-1280zM512 512h768v256h-768v-256zM512 2048h1024v256h-1024v-256zM1024 1280h256v-512h256v768h-512v-256z" />
<glyph unicode="H" d="M0 256v2048h256v256h512v-256h512v256h512v-256h256v-2304h-768v256h-256v-256h-768v256h-256zM256 512h256v768h768v-768h256v1792h-256v-768h-768v768h-256v-1792z" />
<glyph unicode="I" horiz-adv-x="1024" d="M0 256v2048h256v256h512v-256h256v-2304h-768v256h-256zM256 512h256v1792h-256v-1792z" />
<glyph unicode="J" d="M0 512v768h256v256h512v-256h256v1024h256v256h512v-256h256v-2048h-256v-256h-1280v256h-256v256h-256zM256 768h256v512h-256v-512zM512 512h768v256h-768v-256zM1280 768h256v1536h-256v-1536z" />
<glyph unicode="K" d="M0 256v2048h256v256h512v-256h512v256h512v-256h256v-2304h-768v256h-256v-256h-768v256h-256zM256 512h256v768h768v256h-768v768h-256v-1792zM1280 512h256v768h-256v-768zM1280 1536h256v768h-256v-768z" />
<glyph unicode="L" horiz-adv-x="1792" d="M0 256v2048h256v256h512v-256h256v-1280h512v-256h256v-768h-1536v256h-256zM256 512h1024v256h-768v1536h-256v-1792z" />
<glyph unicode="M" horiz-adv-x="2560" d="M0 256v2048h256v256h512v-256h256v-256h512v256h256v256h512v-256h256v-2304h-768v256h-256v512h-512v-768h-768v256h-256zM256 512h256v1280h256v256h-256v256h-256v-1792zM768 1536h256v256h-256v-256zM1024 1280h256v256h-256v-256zM1280 1536h256v256h-256v-256z M1536 1792h256v-1280h256v1792h-256v-256h-256v-256z" />
<glyph unicode="N" d="M0 256v2048h256v256h512v-256h512v256h512v-256h256v-2304h-768v256h-256v-256h-768v256h-256zM256 512h256v1280h256v256h-256v256h-256v-1792zM768 1536h256v256h-256v-256zM1024 1280h256v-768h256v1792h-256v-768h-256v-256z" />
<glyph unicode="O" d="M0 512v1536h256v256h256v256h1024v-256h256v-256h256v-1792h-256v-256h-1280v256h-256v256h-256zM256 768h256v1280h-256v-1280zM512 512h768v256h-768v-256zM512 2048h768v256h-768v-256zM1280 768h256v1280h-256v-1280z" />
<glyph unicode="P" d="M0 256v2048h256v256h1280v-256h256v-256h256v-768h-256v-256h-256v-256h-512v-768h-768v256h-256zM256 512h256v768h768v256h-768v512h768v256h-1024v-1792zM1280 1536h256v512h-256v-512z" />
<glyph unicode="Q" d="M0 512v1536h256v256h256v256h1024v-256h256v-256h256v-1280h-256v-256h256v-768h-768v256h-768v256h-256v256h-256zM256 768h256v1280h-256v-1280zM512 512h768v256h-768v-256zM512 2048h768v256h-768v-256zM1280 256h256v256h-256v-256zM1280 768h256v1280h-256v-1280z " />
<glyph unicode="R" d="M0 256v2048h256v256h1280v-256h256v-256h256v-512h-256v-256h256v-1280h-768v256h-256v-256h-768v256h-256zM256 512h256v768h768v256h-768v512h768v256h-1024v-1792zM1280 512h256v768h-256v-768zM1280 1536h256v512h-256v-512z" />
<glyph unicode="S" d="M0 256v512h256v512h-256v768h256v256h256v256h1280v-256h256v-768h-256v-256h256v-1024h-256v-256h-1536v256h-256zM256 512h1024v256h-1024v-256zM256 1536h256v512h-256v-512zM512 1280h768v256h-768v-256zM512 2048h1024v256h-1024v-256zM1280 768h256v512h-256v-512z " />
<glyph unicode="T" d="M0 1792v512h256v256h1536v-256h256v-768h-512v-1536h-768v256h-256v1280h-256v256h-256zM256 2048h512v-1536h256v1536h512v256h-1280v-256z" />
<glyph unicode="U" d="M0 512v1792h256v256h512v-256h512v256h512v-256h256v-2048h-256v-256h-1280v256h-256v256h-256zM256 768h256v1536h-256v-1536zM512 512h768v256h-768v-256zM1280 768h256v1536h-256v-1536z" />
<glyph unicode="V" horiz-adv-x="2304" d="M0 1280v1024h256v256h512v-256h256v-512h256v512h256v256h512v-256h256v-1024h-256v-768h-256v-256h-256v-256h-768v256h-256v256h-256v768h-256zM256 1536h256v768h-256v-768zM512 768h256v768h-256v-768zM768 512h512v256h-512v-256zM1280 768h256v768h-256v-768z M1536 1536h256v768h-256v-768z" />
<glyph unicode="W" horiz-adv-x="2560" d="M0 512v1792h256v256h512v-256h256v-768h512v768h256v256h512v-256h256v-2048h-256v-256h-768v256h-256v-256h-768v256h-256v256h-256zM256 768h256v1536h-256v-1536zM512 512h256v256h-256v-256zM768 768h256v256h-256v-256zM1024 1024h256v256h-256v-256zM1280 768h256 v256h-256v-256zM1536 512h256v256h-256v-256zM1792 768h256v1536h-256v-1536z" />
<glyph unicode="X" horiz-adv-x="2304" d="M0 256v768h256v512h-256v768h256v256h512v-256h256v-256h256v256h256v256h512v-256h256v-768h-256v-512h256v-1024h-768v256h-256v256h-256v-256h-256v-256h-512v256h-256zM256 512h256v512h-256v-512zM256 1792h256v512h-256v-512zM512 1024h256v256h-256v-256z M512 1536h256v256h-256v-256zM768 1280h512v256h-512v-256zM1280 1024h256v256h-256v-256zM1280 1536h256v256h-256v-256zM1536 512h256v512h-256v-512zM1536 1792h256v512h-256v-512z" />
<glyph unicode="Y" horiz-adv-x="2560" d="M0 1536v768h256v256h512v-256h256v-256h256v-256h256v512h256v256h512v-256h256v-768h-256v-256h-256v-256h-256v-1024h-768v256h-256v768h-256v256h-256v256h-256zM256 1792h256v512h-256v-512zM512 1536h256v256h-256v-256zM768 1280h256v-768h256v768h256v256h-768 v-256zM1536 1536h256v256h-256v-256zM1792 1792h256v512h-256v-512z" />
<glyph unicode="Z" d="M0 256v768h256v256h256v512h-512v512h256v256h1536v-256h256v-768h-256v-256h-256v-256h256v-256h256v-768h-1792v256h-256zM256 512h1280v256h-1024v256h-256v-512zM256 2048h1024v-256h256v512h-1280v-256zM512 1024h256v256h-256v-256zM768 1280h256v256h-256v-256z M1024 1536h256v256h-256v-256z" />
<glyph unicode="[" horiz-adv-x="1280" d="M0 256v2304h1024v-256h256v-512h-256v-1024h256v-768h-1024v256h-256zM256 512h512v256h-256v1280h256v256h-512v-1792z" />
<glyph unicode="\" horiz-adv-x="1792" d="M0 1792v768h256v256h512v-256h256v-512h256v-512h256v-512h256v-1024h-768v256h-256v512h-256v512h-256v512h-256zM256 2048h256v512h-256v-512zM512 1536h256v512h-256v-512zM768 1024h256v512h-256v-512zM1024 512h256v512h-256v-512z" />
<glyph unicode="]" horiz-adv-x="1280" d="M0 256v512h256v1024h-256v512h256v256h768v-256h256v-2304h-1024v256h-256zM256 512h512v1792h-512v-256h256v-1280h-256v-256z" />
<glyph unicode="^" horiz-adv-x="1536" d="M0 1536v512h256v256h256v256h512v-256h256v-256h256v-768h-1280v256h-256zM256 1792h256v256h-256v-256zM512 2048h256v256h-256v-256zM768 1792h256v256h-256v-256z" />
<glyph unicode="_" horiz-adv-x="1792" d="M0 256v512h256v256h1280v-256h256v-768h-1536v256h-256zM256 512h1024v256h-1024v-256z" />
<glyph unicode="`" horiz-adv-x="1280" d="M0 1792v512h256v256h512v-256h256v-256h256v-768h-768v256h-256v256h-256zM256 2048h256v256h-256v-256zM512 1792h256v256h-256v-256z" />
<glyph unicode="a" d="M0 512v512h256v256h256v256h-256v256h256v256h1280v-256h256v-1792h-1536v256h-256v256h-256zM256 768h256v256h-256v-256zM512 512h1024v1024h-256v-256h-768v-256h768v-256h-768v-256zM512 1536h768v256h-768v-256z" />
<glyph unicode="b" d="M0 256v2048h256v256h512v-256h512v-256h256v-256h256v-256h256v-1024h-256v-256h-256v-256h-1280v256h-256zM256 512h1024v256h-768v768h768v256h-768v512h-256v-1792zM1280 768h256v768h-256v-768z" />
<glyph unicode="c" horiz-adv-x="1792" d="M0 512v1024h256v256h256v256h1024v-256h256v-512h-512v-256h256v-256h256v-768h-1280v256h-256v256h-256zM256 768h256v768h-256v-768zM512 512h768v256h-768v-256zM512 1536h768v256h-768v-256z" />
<glyph unicode="d" d="M0 512v1024h256v256h256v256h512v256h256v256h512v-256h256v-2304h-1536v256h-256v256h-256zM256 768h256v768h-256v-768zM512 512h1024v1792h-256v-512h-768v-256h768v-768h-768v-256z" />
<glyph unicode="e" d="M0 512v1024h256v256h256v256h1024v-256h256v-256h256v-1536h-1536v256h-256v256h-256zM256 768h256v256h1024v512h-256v-256h-768v256h-256v-768zM512 512h1024v256h-1024v-256zM512 1536h768v256h-768v-256z" />
<glyph unicode="f" horiz-adv-x="1792" d="M0 1280v512h256v256h256v256h256v256h768v-256h256v-1280h-512v-1024h-768v256h-256v1024h-256zM256 1536h256v-1024h256v1024h512v256h-512v256h-256v-256h-256v-256zM768 2048h512v256h-512v-256z" />
<glyph unicode="g" d="M0 0h256v512h-256v1024h256v256h256v256h1280v-256h256v-2048h-256v-256h-256v-256h-1280v256h-256v512zM256 0v-256h1024v256h-1024zM256 768h256v768h-256v-768zM512 512h768v-512h256v1792h-1024v-256h768v-768h-768v-256z" />
<glyph unicode="h" d="M0 256v2048h256v256h512v-256h256v-256h512v-256h256v-256h256v-1536h-768v256h-512v-256h-512v256h-256zM256 512h256v1024h768v256h-768v512h-256v-1792zM1280 512h256v1024h-256v-1024z" />
<glyph unicode="i" horiz-adv-x="1024" d="M0 256v2048h256v256h512v-256h256v-2304h-768v256h-256zM256 512h256v1280h-256v-1280zM256 2048h256v256h-256v-256z" />
<glyph unicode="j" horiz-adv-x="1024" d="M-256 0h256v2304h256v256h512v-256h256v-2560h-256v-256h-256v-256h-512v256h-256v512zM0 0v-256h256v256h-256zM256 0h256v1792h-256v-1792zM256 2048h256v256h-256v-256z" />
<glyph unicode="k" d="M0 256v2048h256v256h512v-256h256v-256h256v256h512v-256h256v-512h-256v-512h256v-1024h-768v256h-512v-256h-512v256h-256zM256 512h256v768h512v256h-512v768h-256v-1792zM1024 1024h256v256h-256v-256zM1024 1536h256v256h-256v-256zM1280 512h256v512h-256v-512z M1280 1792h256v256h-256v-256z" />
<glyph unicode="l" horiz-adv-x="1024" d="M0 256v2048h256v256h512v-256h256v-2304h-768v256h-256zM256 512h256v1792h-256v-1792z" />
<glyph unicode="m" horiz-adv-x="2560" d="M0 256v1536h256v256h1792v-256h256v-256h256v-1536h-768v256h-256v-256h-512v256h-256v-256h-512v256h-256zM256 512h256v1024h512v256h-768v-1280zM1024 512h256v1024h-256v-1024zM1280 1536h512v256h-512v-256zM1792 512h256v1024h-256v-1024z" />
<glyph unicode="n" d="M0 256v1536h256v256h1280v-256h256v-256h256v-1536h-768v256h-512v-256h-512v256h-256zM256 512h256v1024h768v256h-1024v-1280zM1280 512h256v1024h-256v-1024z" />
<glyph unicode="o" d="M0 512v1024h256v256h256v256h1024v-256h256v-256h256v-1024h-256v-256h-256v-256h-1024v256h-256v256h-256zM256 768h256v768h-256v-768zM512 512h768v256h-768v-256zM512 1536h768v256h-768v-256zM1280 768h256v768h-256v-768z" />
<glyph unicode="p" d="M0 -512v2304h256v256h1280v-256h256v-256h256v-1024h-256v-256h-512v-256h-256v-768h-768v256h-256zM256 -256h256v768h768v256h-768v768h768v256h-1024v-2048zM1280 768h256v768h-256v-768z" />
<glyph unicode="q" d="M0 512v1024h256v256h256v256h1280v-256h256v-2560h-768v256h-256v512h-512v256h-256v256h-256zM256 768h256v768h-256v-768zM512 512h768v-768h256v2048h-1024v-256h768v-768h-768v-256z" />
<glyph unicode="r" horiz-adv-x="1536" d="M0 256v1280h256v256h256v256h768v-256h256v-512h-512v-1280h-768v256h-256zM256 512h256v1024h-256v-1024zM512 1536h512v256h-512v-256z" />
<glyph unicode="s" d="M0 256v512h256v256h-256v512h256v256h256v256h1280v-256h256v-512h-256v-256h256v-512h-256v-256h-256v-256h-1280v256h-256zM256 512h1024v256h-1024v-256zM256 1280h256v256h-256v-256zM512 1024h768v256h-768v-256zM512 1536h1024v256h-1024v-256zM1280 768h256v256 h-256v-256z" />
<glyph unicode="t" horiz-adv-x="1536" d="M0 1280v512h256v512h256v256h512v-256h256v-512h256v-512h-256v-512h256v-768h-768v256h-256v256h-256v768h-256zM256 1536h256v-768h256v768h256v256h-256v512h-256v-512h-256v-256zM768 512h256v256h-256v-256z" />
<glyph unicode="u" d="M0 512v1280h256v256h512v-256h512v256h512v-256h256v-1536h-256v-256h-1280v256h-256v256h-256zM256 768h256v1024h-256v-1024zM512 512h768v256h-768v-256zM1280 768h256v1024h-256v-1024z" />
<glyph unicode="v" d="M0 768v1024h256v256h512v-256h512v256h512v-256h256v-1024h-256v-256h-256v-256h-256v-256h-512v256h-256v256h-256v256h-256zM256 1024h256v768h-256v-768zM512 768h256v256h-256v-256zM768 512h256v256h-256v-256zM1024 768h256v256h-256v-256zM1280 1024h256v768h-256 v-768z" />
<glyph unicode="w" horiz-adv-x="2560" d="M0 512v1280h256v256h512v-256h1024v256h512v-256h256v-1280h-256v-256h-256v-256h-512v256h-512v-256h-512v256h-256v256h-256zM256 768h256v1024h-256v-1024zM512 512h256v256h-256v-256zM768 768h256v256h-256v-256zM1024 1024h256v512h-256v-512zM1280 768h256v256 h-256v-256zM1536 512h256v256h-256v-256zM1792 768h256v1024h-256v-1024z" />
<glyph unicode="x" d="M0 256v512h256v512h-256v512h256v256h512v-256h512v256h512v-256h256v-512h-256v-512h256v-512h-256v-256h-512v256h-512v-256h-512v256h-256zM256 512h256v256h-256v-256zM256 1536h256v256h-256v-256zM512 768h256v256h-256v-256zM512 1280h256v256h-256v-256z M768 1024h256v256h-256v-256zM1024 768h256v256h-256v-256zM1024 1280h256v256h-256v-256zM1280 512h256v256h-256v-256zM1280 1536h256v256h-256v-256z" />
<glyph unicode="y" d="M0 512v1280h256v256h512v-256h512v256h512v-256h256v-2048h-256v-256h-256v-256h-1024v256h-256v512h256v256h-256v256h-256zM256 768h256v1024h-256v-1024zM512 0v-256h768v256h-768zM512 512h768v-512h256v1792h-256v-1024h-768v-256z" />
<glyph unicode="z" d="M0 256v768h256v256h-256v512h256v256h1536v-256h256v-512h-256v-512h256v-768h-1792v256h-256zM256 512h1280v256h-1024v256h-256v-512zM256 1536h1024v-256h256v512h-1280v-256zM512 1024h768v256h-768v-256z" />
<glyph unicode="{" horiz-adv-x="1536" d="M0 1024v512h256v512h256v256h256v256h512v-256h256v-512h-256v-1024h256v-768h-768v256h-256v256h-256v512h-256zM256 1280h256v256h-256v-256zM512 768h256v512h-256v-512zM512 1536h256v512h-256v-512zM768 512h256v256h-256v-256zM768 2048h256v256h-256v-256z" />
<glyph unicode="|" horiz-adv-x="1024" d="M0 256v2304h256v256h512v-256h256v-2560h-768v256h-256zM256 512h256v2048h-256v-2048z" />
<glyph unicode="}" horiz-adv-x="1536" d="M0 256v512h256v1024h-256v512h256v256h512v-256h256v-256h256v-512h256v-512h-256v-512h-256v-256h-256v-256h-512v256h-256zM256 512h256v256h-256v-256zM256 2048h256v256h-256v-256zM512 768h256v512h-256v-512zM512 1536h256v512h-256v-512zM768 1280h256v256h-256 v-256z" />
<glyph unicode="~" horiz-adv-x="1792" d="M0 1536v512h256v256h256v256h1024v-256h256v-512h-256v-256h-256v-256h-1024v256h-256zM256 1792h256v256h-256v-256zM512 2048h256v256h-256v-256zM768 1792h256v256h-256v-256zM1024 2048h256v256h-256v-256z" />
<glyph unicode="&#xa1;" horiz-adv-x="1024" d="M0 256v2048h256v256h512v-256h256v-2304h-768v256h-256zM256 512h256v1280h-256v-1280zM256 2048h256v256h-256v-256z" />
<glyph unicode="&#xa6;" horiz-adv-x="1024" d="M0 256v2048h256v256h512v-256h256v-2304h-768v256h-256zM256 512h256v768h-256v-768zM256 1536h256v768h-256v-768z" />
<glyph unicode="&#xa8;" horiz-adv-x="1536" d="M0 1792v512h256v256h1024v-256h256v-768h-1280v256h-256zM256 2048h256v256h-256v-256zM768 2048h256v256h-256v-256z" />
<glyph unicode="&#xa9;" horiz-adv-x="1536" d="M0 1280v768h256v256h256v256h768v-256h256v-512h-256v-256h256v-768h-1024v256h-256v256h-256zM256 1536h256v512h-256v-512zM512 1280h512v256h-512v-256zM512 2048h512v256h-512v-256z" />
<glyph unicode="&#xaa;" d="M0 512v512h256v256h256v256h-256v256h256v256h1280v-256h256v-1792h-1536v256h-256v256h-256zM256 768h256v256h-256v-256zM512 512h1024v1024h-256v-256h-768v-256h768v-256h-768v-256zM512 1536h768v256h-768v-256z" />
<glyph unicode="&#xab;" horiz-adv-x="1792" d="M0 512v512h256v256h256v256h1024v-256h256v-1280h-1280v256h-256v256h-256zM256 768h256v256h-256v-256zM512 512h256v256h-256v-256zM512 1024h256v256h-256v-256zM768 768h256v256h-256v-256zM1024 512h256v256h-256v-256zM1024 1024h256v256h-256v-256z" />
<glyph unicode="&#xac;" horiz-adv-x="1536" d="M0 1024v512h256v256h1024v-256h256v-1024h-768v256h-512v256h-256zM256 1280h512v-256h256v512h-768v-256z" />
<glyph unicode="&#xad;" horiz-adv-x="1536" d="M0 1024v512h256v256h1024v-256h256v-768h-1280v256h-256zM256 1280h768v256h-768v-256z" />
<glyph unicode="&#x2212;" horiz-adv-x="1536" d="M0 1024v512h256v256h1024v-256h256v-768h-1280v256h-256zM256 1280h768v256h-768v-256z" />
<glyph unicode="&#xae;" horiz-adv-x="1536" d="M0 1024v1280h256v256h1024v-256h256v-1536h-1280v256h-256zM256 1280h256v256h256v256h-256v256h256v-256h256v512h-768v-1024zM768 1280h256v256h-256v-256z" />
<glyph unicode="&#xaf;" horiz-adv-x="1536" d="M0 1792v512h256v256h1024v-256h256v-768h-1280v256h-256zM256 2048h768v256h-768v-256z" />
<glyph unicode="&#x2c9;" horiz-adv-x="1536" d="M0 1792v512h256v256h1024v-256h256v-768h-1280v256h-256zM256 2048h768v256h-768v-256z" />
<glyph unicode="&#xb0;" horiz-adv-x="1536" d="M0 1280v1024h256v256h1024v-256h256v-1024h-256v-256h-1024v256h-256zM256 1536h768v768h-768v-768zM512 1792v256h256v-256h-256z" />
<glyph unicode="&#xb1;" horiz-adv-x="1536" d="M0 256v1280h256v256h256v256h512v-256h256v-256h256v-1536h-1280v256h-256zM256 512h768v256h-768v-256zM256 1280h256v-256h256v256h256v256h-256v256h-256v-256h-256v-256z" />
<glyph unicode="&#xb2;" horiz-adv-x="1280" d="M-256 1280v768h256v256h-256v512h256v256h768v-256h256v-256h256v-512h-256v-256h256v-768h-1280v256h-256zM0 1536h768v256h-512v256h-256v-512zM0 2560h512v256h-512v-256zM256 2048h256v256h-256v-256zM512 2304h256v256h-256v-256z" />
<glyph unicode="&#xb3;" horiz-adv-x="1280" d="M-256 1280v512h256v512h-256v512h256v256h768v-256h256v-256h256v-1024h-256v-256h-256v-256h-768v256h-256zM0 1536h512v256h-512v-256zM0 2560h512v256h-512v-256zM256 2048h256v256h-256v-256zM512 1792h256v256h-256v-256zM512 2304h256v256h-256v-256z" />
<glyph unicode="&#xb4;" horiz-adv-x="1280" d="M0 1536v512h256v256h256v256h512v-256h256v-512h-256v-256h-256v-256h-512v256h-256zM256 1792h256v256h-256v-256zM512 2048h256v256h-256v-256z" />
<glyph unicode="&#xb6;" d="M0 1024v1024h256v256h256v256h1280v-256h256v-2304h-1280v256h-256v512h-256v256h-256zM256 1280h256v768h-256v-768zM512 1024h256v-512h256v512h256v-512h256v1792h-1024v-256h256v-768h-256v-256zM1024 1280v768h256v-768h-256z" />
<glyph unicode="&#xb7;" horiz-adv-x="1024" d="M0 1024v512h256v256h512v-256h256v-768h-768v256h-256zM256 1280h256v256h-256v-256z" />
<glyph unicode="&#x2219;" horiz-adv-x="1024" d="M0 1024v512h256v256h512v-256h256v-768h-768v256h-256zM256 1280h256v256h-256v-256z" />
<glyph unicode="&#xb8;" d="M0 -256v512h256v256h256v256h512v-256h256v-512h-256v-256h-256v-256h-512v256h-256zM256 0h256v256h-256v-256zM512 256h256v256h-256v-256z" />
<glyph unicode="&#xb9;" horiz-adv-x="1024" d="M-256 2048v512h256v256h256v256h512v-256h256v-1792h-768v256h-256v768h-256zM0 2304h256v-768h256v1280h-256v-256h-256v-256z" />
<glyph unicode="&#xba;" d="M0 512v1024h256v256h256v256h1024v-256h256v-256h256v-1024h-256v-256h-256v-256h-1024v256h-256v256h-256zM256 768h256v768h-256v-768zM512 512h768v256h-768v-256zM512 1536h768v256h-768v-256zM1280 768h256v768h-256v-768z" />
<glyph unicode="&#xbb;" horiz-adv-x="1792" d="M0 256v1024h256v256h1024v-256h256v-256h256v-512h-256v-256h-256v-256h-1024v256h-256zM256 512h256v256h-256v-256zM256 1024h256v256h-256v-256zM512 768h256v256h-256v-256zM768 512h256v256h-256v-256zM768 1024h256v256h-256v-256zM1024 768h256v256h-256v-256z " />
<glyph unicode="&#xbc;" horiz-adv-x="3328" d="M0 2048v512h256v256h256v256h512v-256h256v-256h256v256h512v-768h256v-256h256v256h512v-256h256v-1792h-768v256h-256v256h-512v256h-256v-768h-768v256h-256v1024h-256v768h-256zM256 2304h256v-768h256v1280h-256v-256h-256v-256zM768 512h256v512h-256v-512z M1024 1024h256v512h-256v-512zM1280 1536h256v512h-256v-512zM1536 2048h256v512h-256v-512zM1792 1024h768v-512h256v1280h-256v-512h-512v512h-256v-768z" />
<glyph unicode="&#xbd;" horiz-adv-x="3072" d="M0 2048v512h256v256h256v256h512v-256h256v-256h256v256h512v-256h256v-512h256v-256h256v-256h256v-512h-256v-256h256v-768h-1280v256h-256v-256h-768v256h-256v1024h-256v768h-256zM256 2304h256v-768h256v1280h-256v-256h-256v-256zM768 512h256v512h-256v-512z M1024 1024h256v512h-256v-512zM1280 1536h256v512h-256v-512zM1536 2048h256v512h-256v-512zM1792 512h768v256h-512v256h256v256h256v256h-256v256h-512v-256h512v-256h-256v-256h-256v-512z" />
<glyph unicode="&#xbe;" horiz-adv-x="3584" d="M0 1280v512h256v512h-256v512h256v256h768v-256h256v-256h512v256h512v-768h256v-256h256v256h512v-256h256v-1792h-768v256h-256v256h-512v256h-256v-768h-768v256h-256v768h-512v256h-256zM256 1536h512v256h-512v-256zM256 2560h512v256h-512v-256zM512 2048h256v256 h-256v-256zM768 1792h256v256h-256v-256zM768 2304h256v256h-256v-256zM1024 512h256v512h-256v-512zM1280 1024h256v512h-256v-512zM1536 1536h256v512h-256v-512zM1792 2048h256v512h-256v-512zM2048 1024h768v-512h256v1280h-256v-512h-512v512h-256v-768z" />
<glyph unicode="&#xbf;" horiz-adv-x="2304" d="M0 512v768h256v256h256v768h256v256h512v-256h256v-768h-256v-512h256v256h512v-256h256v-512h-256v-256h-256v-256h-1280v256h-256v256h-256zM256 768h256v512h-256v-512zM512 512h1024v256h-1024v-256zM512 1280h256v256h-256v-256zM768 1536h256v256h-256v-256z M768 2048h256v256h-256v-256zM1536 768h256v256h-256v-256z" />
<glyph unicode="&#xc0;" d="M0 256v1792h256v256h256v256h-256v512h256v256h512v-256h256v-256h256v-512h256v-256h256v-2048h-768v256h-256v-256h-768v256h-256zM256 512h256v768h768v-768h256v1536h-256v-512h-768v512h-256v-1536zM512 2048h768v256h-768v-256zM512 2816h256v256h-256v-256z M768 2560h256v256h-256v-256z" />
<glyph unicode="&#xc1;" d="M0 256v1792h256v256h256v512h256v256h256v256h512v-256h256v-512h-256v-256h256v-256h256v-2048h-768v256h-256v-256h-768v256h-256zM256 512h256v768h768v-768h256v1536h-256v-512h-768v512h-256v-1536zM512 2048h768v256h-768v-256zM768 2560h256v256h-256v-256z M1024 2816h256v256h-256v-256z" />
<glyph unicode="&#xc2;" d="M0 256v1792h256v768h256v256h256v256h512v-256h256v-256h256v-768h256v-2048h-768v256h-256v-256h-768v256h-256zM256 512h256v768h768v-768h256v1536h-256v-512h-768v512h-256v-1536zM512 2048h768v256h-768v-256zM512 2560h256v256h-256v-256zM768 2816h256v256h-256 v-256zM1024 2560h256v256h-256v-256z" />
<glyph unicode="&#xc3;" d="M0 256v1792h256v768h256v256h256v256h1024v-256h256v-512h-256v-512h256v-2048h-768v256h-256v-256h-768v256h-256zM256 512h256v768h768v-768h256v1536h-256v-512h-768v512h-256v-1536zM512 2048h768v256h-768v-256zM512 2560h256v256h-256v-256zM768 2816h256v256h-256 v-256zM1024 2560h256v256h-256v-256zM1280 2816h256v256h-256v-256z" />
<glyph unicode="&#xc4;" d="M0 256v1792h256v768h256v256h1024v-256h256v-768h256v-2048h-768v256h-256v-256h-768v256h-256zM256 512h256v768h768v-768h256v1536h-256v-512h-768v512h-256v-1536zM512 2048h768v256h-768v-256zM512 2560h256v256h-256v-256zM1024 2560h256v256h-256v-256z" />
<glyph unicode="&#xc5;" d="M0 256v1792h256v256h256v256h-256v512h256v256h256v256h512v-256h256v-256h256v-512h-256v-256h256v-256h256v-2048h-768v256h-256v-256h-768v256h-256zM256 512h256v768h768v-768h256v1536h-256v-512h-768v512h-256v-1536zM512 2048h768v256h-768v-256zM512 2816h256 v256h-256v-256zM768 2560h256v256h-256v-256zM768 3072h256v256h-256v-256zM1024 2816h256v256h-256v-256z" />
<glyph unicode="&#xc6;" horiz-adv-x="2816" d="M0 256v1792h256v256h256v256h768v-256h256v256h1024v-256h256v-2304h-1536v256h-256v-256h-768v256h-256zM256 512h256v768h768v-768h1024v256h-768v512h768v256h-768v512h-256v-512h-768v512h-256v-1536zM512 2048h768v256h-768v-256zM1536 2048h768v256h-768v-256z" />
<glyph unicode="&#xc7;" d="M0 512v1536h256v256h256v256h1280v-256h256v-768h-768v-512h512v-256h256v-768h-512v-256h-256v-256h-512v256h-256v512h-256v256h-256zM256 768h256v1280h-256v-1280zM512 512h512v-256h256v256h256v256h-1024v-256zM512 2048h1024v256h-1024v-256zM768 0h256v256h-256 v-256z" />
<glyph unicode="&#xc8;" horiz-adv-x="1792" d="M0 256v2048h256v768h256v256h512v-256h256v-256h256v-512h256v-512h-256v-256h256v-512h-256v-256h256v-768h-1536v256h-256zM256 512h1024v256h-768v512h768v256h-768v512h768v256h-1024v-1792zM512 2816h256v256h-256v-256zM768 2560h256v256h-256v-256z" />
<glyph unicode="&#xc9;" horiz-adv-x="1792" d="M0 256v2048h256v256h256v256h256v256h256v256h512v-256h256v-512h-256v-256h256v-512h-256v-256h256v-512h-256v-256h256v-768h-1536v256h-256zM256 512h1024v256h-768v512h768v256h-768v512h768v256h-1024v-1792zM768 2560h256v256h-256v-256zM1024 2816h256v256h-256 v-256z" />
<glyph unicode="&#xca;" horiz-adv-x="1792" d="M0 256v2048h256v512h256v256h256v256h512v-256h256v-256h256v-1024h-256v-256h256v-512h-256v-256h256v-768h-1536v256h-256zM256 512h1024v256h-768v512h768v256h-768v512h768v256h-1024v-1792zM512 2560h256v256h-256v-256zM768 2816h256v256h-256v-256zM1024 2560h256 v256h-256v-256z" />
<glyph unicode="&#xcb;" horiz-adv-x="1792" d="M0 256v2048h256v512h256v256h1024v-256h256v-1024h-256v-256h256v-512h-256v-256h256v-768h-1536v256h-256zM256 512h1024v256h-768v512h768v256h-768v512h768v256h-1024v-1792zM512 2560h256v256h-256v-256zM1024 2560h256v256h-256v-256z" />
<glyph unicode="&#xcc;" horiz-adv-x="1024" d="M-256 2560v512h256v256h512v-256h256v-256h256v-2816h-768v256h-256v2304h-256zM0 2816h256v256h-256v-256zM256 512h256v1792h-256v-1792zM256 2560h256v256h-256v-256z" />
<glyph unicode="&#xcd;" horiz-adv-x="1024" d="M0 256v2560h256v256h256v256h512v-256h256v-512h-256v-2560h-768v256h-256zM256 512h256v1792h-256v-1792zM256 2560h256v256h-256v-256zM512 2816h256v256h-256v-256z" />
<glyph unicode="&#xce;" horiz-adv-x="1024" d="M-256 2304v512h256v256h256v256h512v-256h256v-256h256v-512h-256v-2304h-768v256h-256v2048h-256zM0 2560h256v256h-256v-256zM256 512h256v1792h-256v-1792zM256 2816h256v256h-256v-256zM512 2560h256v256h-256v-256z" />
<glyph unicode="&#xcf;" horiz-adv-x="1024" d="M-256 2304v512h256v256h1024v-256h256v-512h-256v-2304h-768v256h-256v2048h-256zM0 2560h256v256h-256v-256zM256 512h256v1792h-256v-1792zM512 2560h256v256h-256v-256z" />
<glyph unicode="&#xd1;" d="M0 256v2048h256v512h256v256h256v256h1024v-256h256v-512h-256v-256h256v-2304h-768v256h-256v-256h-768v256h-256zM256 512h256v1280h256v256h-256v256h-256v-1792zM512 2560h256v256h-256v-256zM768 1536h256v256h-256v-256zM768 2816h256v256h-256v-256zM1024 1280 h256v-768h256v1792h-256v-768h-256v-256zM1024 2560h256v256h-256v-256zM1280 2816h256v256h-256v-256z" />
<glyph unicode="&#xd2;" d="M0 512v1536h256v256h256v256h-256v512h256v256h512v-256h256v-256h256v-512h256v-256h256v-1792h-256v-256h-1280v256h-256v256h-256zM256 768h256v1280h-256v-1280zM512 512h768v256h-768v-256zM512 2048h768v256h-768v-256zM512 2816h256v256h-256v-256zM768 2560h256 v256h-256v-256zM1280 768h256v1280h-256v-1280z" />
<glyph unicode="&#xd3;" d="M0 512v1536h256v256h256v512h256v256h256v256h512v-256h256v-512h-256v-256h256v-256h256v-1792h-256v-256h-1280v256h-256v256h-256zM256 768h256v1280h-256v-1280zM512 512h768v256h-768v-256zM512 2048h768v256h-768v-256zM768 2560h256v256h-256v-256zM1024 2816h256 v256h-256v-256zM1280 768h256v1280h-256v-1280z" />
<glyph unicode="&#xd4;" d="M0 512v1536h256v768h256v256h256v256h512v-256h256v-256h256v-768h256v-1792h-256v-256h-1280v256h-256v256h-256zM256 768h256v1280h-256v-1280zM512 512h768v256h-768v-256zM512 2048h768v256h-768v-256zM512 2560h256v256h-256v-256zM768 2816h256v256h-256v-256z M1024 2560h256v256h-256v-256zM1280 768h256v1280h-256v-1280z" />
<glyph unicode="&#xd5;" d="M0 512v1792h256v512h256v256h256v256h1024v-256h256v-512h-256v-256h256v-2048h-256v-256h-1280v256h-256v256h-256zM256 768h256v1536h-256v-1536zM512 512h768v256h-768v-256zM512 2560h256v256h-256v-256zM768 2816h256v256h-256v-256zM1024 2560h256v256h-256v-256z M1280 768h256v1536h-256v-1536zM1280 2816h256v256h-256v-256z" />
<glyph unicode="&#xd6;" d="M0 512v1536h256v768h256v256h1024v-256h256v-768h256v-1792h-256v-256h-1280v256h-256v256h-256zM256 768h256v1280h-256v-1280zM512 512h768v256h-768v-256zM512 2048h768v256h-768v-256zM512 2560h256v256h-256v-256zM1024 2560h256v256h-256v-256zM1280 768h256v1280 h-256v-1280z" />
<glyph unicode="&#xd8;" d="M0 512v1536h256v256h256v256h1024v-256h256v-256h256v-1792h-256v-256h-1280v256h-256v256h-256zM256 768h256v256h256v256h-256v768h-256v-1280zM512 512h768v256h-768v-256zM512 2048h768v256h-768v-256zM768 1280h256v256h-256v-256zM1024 1536h256v-768h256v1280 h-256v-256h-256v-256z" />
<glyph unicode="&#xd9;" d="M0 512v1792h256v768h256v256h512v-256h256v-256h256v-256h256v-256h256v-2048h-256v-256h-1280v256h-256v256h-256zM256 768h256v1536h-256v-1536zM512 512h768v256h-768v-256zM512 2816h256v256h-256v-256zM768 2560h256v256h-256v-256zM1280 768h256v1536h-256v-1536z " />
<glyph unicode="&#xda;" d="M0 512v1792h256v256h256v256h256v256h256v256h512v-256h256v-768h256v-2048h-256v-256h-1280v256h-256v256h-256zM256 768h256v1536h-256v-1536zM512 512h768v256h-768v-256zM768 2560h256v256h-256v-256zM1024 2816h256v256h-256v-256zM1280 768h256v1536h-256v-1536z " />
<glyph unicode="&#xdb;" d="M0 512v1792h256v512h256v256h256v256h512v-256h256v-256h256v-512h256v-2048h-256v-256h-1280v256h-256v256h-256zM256 768h256v1536h-256v-1536zM512 512h768v256h-768v-256zM512 2560h256v256h-256v-256zM768 2816h256v256h-256v-256zM1024 2560h256v256h-256v-256z M1280 768h256v1536h-256v-1536z" />
<glyph unicode="&#xdc;" d="M0 512v1792h256v512h256v256h1024v-256h256v-512h256v-2048h-256v-256h-1280v256h-256v256h-256zM256 768h256v1536h-256v-1536zM512 512h768v256h-768v-256zM512 2560h256v256h-256v-256zM1024 2560h256v256h-256v-256zM1280 768h256v1536h-256v-1536z" />
<glyph unicode="&#xdd;" horiz-adv-x="2560" d="M0 1536v768h256v256h768v256h256v256h512v-256h256v-256h256v-256h256v-768h-256v-256h-256v-256h-256v-1024h-768v256h-256v768h-256v256h-256v256h-256zM256 1792h256v512h-256v-512zM512 1536h256v256h-256v-256zM768 1280h256v-768h256v768h256v256h-768v-256z M1024 2304h256v256h-256v-256zM1280 2560h256v256h-256v-256zM1536 1536h256v256h-256v-256zM1792 1792h256v512h-256v-512z" />
<glyph unicode="&#xdf;" d="M0 -512v2560h256v256h256v256h1024v-256h256v-256h256v-512h-256v-256h256v-768h-256v-256h-256v-256h-512v-768h-768v256h-256zM256 -256h256v2304h-256v-2304zM512 2048h768v256h-768v-256zM768 1280h512v256h-512v-256zM1024 512h256v256h-256v-256zM1280 768h256v512 h-256v-512zM1280 1536h256v512h-256v-512z" />
<glyph unicode="&#xe0;" d="M0 512v512h256v256h256v256h-256v256h256v256h-256v512h256v256h512v-256h256v-256h256v-256h256v-256h256v-1792h-1536v256h-256v256h-256zM256 768h256v256h-256v-256zM512 512h1024v1024h-256v-256h-768v-256h768v-256h-768v-256zM512 1536h768v256h-768v-256z M512 2304h256v256h-256v-256zM768 2048h256v256h-256v-256z" />
<glyph unicode="&#xe1;" d="M0 512v512h256v256h256v256h-256v256h256v512h256v256h256v256h512v-256h256v-768h256v-1792h-1536v256h-256v256h-256zM256 768h256v256h-256v-256zM512 512h1024v1024h-256v-256h-768v-256h768v-256h-768v-256zM512 1536h768v256h-768v-256zM768 2048h256v256h-256 v-256zM1024 2304h256v256h-256v-256z" />
<glyph unicode="&#xe2;" d="M0 512v512h256v256h256v256h-256v768h256v256h256v256h512v-256h256v-256h256v-512h256v-1792h-1536v256h-256v256h-256zM256 768h256v256h-256v-256zM512 512h1024v1024h-256v-256h-768v-256h768v-256h-768v-256zM512 1536h768v256h-768v-256zM512 2048h256v256h-256 v-256zM768 2304h256v256h-256v-256zM1024 2048h256v256h-256v-256z" />
<glyph unicode="&#xe3;" d="M0 512v512h256v256h256v256h-256v768h256v256h256v256h1024v-256h256v-512h-256v-256h256v-1792h-1536v256h-256v256h-256zM256 768h256v256h-256v-256zM512 512h1024v1024h-256v-256h-768v-256h768v-256h-768v-256zM512 1536h768v256h-768v-256zM512 2048h256v256h-256 v-256zM768 2304h256v256h-256v-256zM1024 2048h256v256h-256v-256zM1280 2304h256v256h-256v-256z" />
<glyph unicode="&#xe4;" d="M0 512v512h256v256h256v256h-256v768h256v256h1024v-256h256v-512h256v-1792h-1536v256h-256v256h-256zM256 768h256v256h-256v-256zM512 512h1024v1024h-256v-256h-768v-256h768v-256h-768v-256zM512 1536h768v256h-768v-256zM512 2048h256v256h-256v-256zM1024 2048 h256v256h-256v-256z" />
<glyph unicode="&#xe5;" d="M0 512v512h256v256h256v256h-256v256h256v256h-256v512h256v256h256v256h512v-256h256v-256h256v-768h256v-1792h-1536v256h-256v256h-256zM256 768h256v256h-256v-256zM512 512h1024v1024h-256v-256h-768v-256h768v-256h-768v-256zM512 1536h768v256h-768v-256z M512 2304h256v256h-256v-256zM768 2048h256v256h-256v-256zM768 2560h256v256h-256v-256zM1024 2304h256v256h-256v-256z" />
<glyph unicode="&#xe6;" horiz-adv-x="3072" d="M0 512v512h256v256h256v256h-256v256h256v256h2048v-256h256v-256h256v-1536h-2560v256h-256v256h-256zM256 768h256v256h-256v-256zM512 512h768v256h-768v-256zM512 1024h768v-256h256v256h1024v512h-256v-256h-768v256h-256v-256h-768v-256zM512 1536h768v256h-768 v-256zM1536 512h1024v256h-1024v-256zM1536 1536h768v256h-768v-256z" />
<glyph unicode="&#xe7;" horiz-adv-x="1792" d="M0 512v1024h256v256h256v256h1024v-256h256v-512h-512v-256h256v-256h256v-768h-512v-256h-256v-256h-512v256h-256v768h-256zM256 768h256v768h-256v-768zM512 0h256v256h-256v-256zM512 512h256v-256h256v256h256v256h-768v-256zM512 1536h768v256h-768v-256z" />
<glyph unicode="&#xe8;" d="M0 512v1024h256v256h256v256h-256v512h256v256h512v-256h256v-256h256v-512h256v-256h256v-1536h-1536v256h-256v256h-256zM256 768h256v256h1024v512h-256v-256h-768v256h-256v-768zM512 512h1024v256h-1024v-256zM512 1536h768v256h-768v-256zM512 2304h256v256h-256 v-256zM768 2048h256v256h-256v-256z" />
<glyph unicode="&#xe9;" d="M0 512v1024h256v256h256v512h256v256h256v256h512v-256h256v-512h-256v-256h256v-256h256v-1536h-1536v256h-256v256h-256zM256 768h256v256h1024v512h-256v-256h-768v256h-256v-768zM512 512h1024v256h-1024v-256zM512 1536h768v256h-768v-256zM768 2048h256v256h-256 v-256zM1024 2304h256v256h-256v-256z" />
<glyph unicode="&#xea;" d="M0 512v1024h256v768h256v256h256v256h512v-256h256v-256h256v-768h256v-1536h-1536v256h-256v256h-256zM256 768h256v256h1024v512h-256v-256h-768v256h-256v-768zM512 512h1024v256h-1024v-256zM512 1536h768v256h-768v-256zM512 2048h256v256h-256v-256zM768 2304h256 v256h-256v-256zM1024 2048h256v256h-256v-256z" />
<glyph unicode="&#xeb;" d="M0 512v1024h256v768h256v256h1024v-256h256v-768h256v-1536h-1536v256h-256v256h-256zM256 768h256v256h1024v512h-256v-256h-768v256h-256v-768zM512 512h1024v256h-1024v-256zM512 1536h768v256h-768v-256zM512 2048h256v256h-256v-256zM1024 2048h256v256h-256v-256z " />
<glyph unicode="&#xec;" horiz-adv-x="1024" d="M-256 2048v512h256v256h512v-256h256v-256h256v-2304h-768v256h-256v1792h-256zM0 2304h256v256h-256v-256zM256 512h256v1280h-256v-1280zM256 2048h256v256h-256v-256z" />
<glyph unicode="&#xed;" horiz-adv-x="1024" d="M0 256v2048h256v256h256v256h512v-256h256v-512h-256v-2048h-768v256h-256zM256 512h256v1280h-256v-1280zM256 2048h256v256h-256v-256zM512 2304h256v256h-256v-256z" />
<glyph unicode="&#xee;" horiz-adv-x="1024" d="M-256 1792v512h256v256h256v256h512v-256h256v-256h256v-512h-256v-1792h-768v256h-256v1536h-256zM0 2048h256v256h-256v-256zM256 512h256v1280h-256v-1280zM256 2304h256v256h-256v-256zM512 2048h256v256h-256v-256z" />
<glyph unicode="&#xef;" horiz-adv-x="1024" d="M-256 1792v512h256v256h1024v-256h256v-512h-256v-1792h-768v256h-256v1536h-256zM0 2048h256v256h-256v-256zM256 512h256v1280h-256v-1280zM512 2048h256v256h-256v-256z" />
<glyph unicode="&#xf1;" d="M0 256v1536h256v512h256v256h256v256h1024v-256h256v-512h-256v-512h256v-1280h-256v-256h-512v256h-512v-256h-512v256h-256zM256 512h256v1024h768v256h-1024v-1280zM512 2048h256v256h-256v-256zM768 2304h256v256h-256v-256zM1024 2048h256v256h-256v-256zM1280 512 h256v1024h-256v-1024zM1280 2304h256v256h-256v-256z" />
<glyph unicode="&#xf2;" d="M0 512v1024h256v256h256v256h-256v512h256v256h512v-256h256v-256h256v-512h256v-256h256v-1024h-256v-256h-256v-256h-1024v256h-256v256h-256zM256 768h256v768h-256v-768zM512 512h768v256h-768v-256zM512 1536h768v256h-768v-256zM512 2304h256v256h-256v-256z M768 2048h256v256h-256v-256zM1280 768h256v768h-256v-768z" />
<glyph unicode="&#xf3;" d="M0 512v1024h256v256h256v512h256v256h256v256h512v-256h256v-512h-256v-256h256v-256h256v-1024h-256v-256h-256v-256h-1024v256h-256v256h-256zM256 768h256v768h-256v-768zM512 512h768v256h-768v-256zM512 1536h768v256h-768v-256zM768 2048h256v256h-256v-256z M1024 2304h256v256h-256v-256zM1280 768h256v768h-256v-768z" />
<glyph unicode="&#xf4;" d="M0 512v1024h256v768h256v256h256v256h512v-256h256v-256h256v-768h256v-1024h-256v-256h-256v-256h-1024v256h-256v256h-256zM256 768h256v768h-256v-768zM512 512h768v256h-768v-256zM512 1536h768v256h-768v-256zM512 2048h256v256h-256v-256zM768 2304h256v256h-256 v-256zM1024 2048h256v256h-256v-256zM1280 768h256v768h-256v-768z" />
<glyph unicode="&#xf5;" d="M0 512v1024h256v768h256v256h256v256h1024v-256h256v-512h-256v-512h256v-1024h-256v-256h-256v-256h-1024v256h-256v256h-256zM256 768h256v768h-256v-768zM512 512h768v256h-768v-256zM512 1536h768v256h-768v-256zM512 2048h256v256h-256v-256zM768 2304h256v256h-256 v-256zM1024 2048h256v256h-256v-256zM1280 768h256v768h-256v-768zM1280 2304h256v256h-256v-256z" />
<glyph unicode="&#xf6;" d="M0 512v1024h256v768h256v256h1024v-256h256v-768h256v-1024h-256v-256h-256v-256h-1024v256h-256v256h-256zM256 768h256v768h-256v-768zM512 512h768v256h-768v-256zM512 1536h768v256h-768v-256zM512 2048h256v256h-256v-256zM1024 2048h256v256h-256v-256zM1280 768 h256v768h-256v-768z" />
<glyph unicode="&#xf7;" horiz-adv-x="1536" d="M0 1024v512h256v512h256v256h512v-256h256v-512h256v-768h-256v-512h-768v256h-256v512h-256zM256 1280h768v256h-768v-256zM512 768h256v256h-256v-256zM512 1792h256v256h-256v-256z" />
<glyph unicode="&#xf8;" d="M0 512v1024h256v256h256v256h1024v-256h256v-256h256v-1024h-256v-256h-256v-256h-1024v256h-256v256h-256zM256 768h256v-256h768v256h-512v256h-256v512h-256v-768zM512 1536h512v-256h256v-512h256v768h-256v256h-768v-256zM768 1024h256v256h-256v-256z" />
<glyph unicode="&#xf9;" d="M0 512v1280h256v768h256v256h512v-256h256v-256h256v-256h256v-256h256v-1536h-256v-256h-1280v256h-256v256h-256zM256 768h256v1024h-256v-1024zM512 512h768v256h-768v-256zM512 2304h256v256h-256v-256zM768 2048h256v256h-256v-256zM1280 768h256v1024h-256v-1024z " />
<glyph unicode="&#xfa;" d="M0 512v1280h256v256h256v256h256v256h256v256h512v-256h256v-768h256v-1536h-256v-256h-1280v256h-256v256h-256zM256 768h256v1024h-256v-1024zM512 512h768v256h-768v-256zM768 2048h256v256h-256v-256zM1024 2304h256v256h-256v-256zM1280 768h256v1024h-256v-1024z " />
<glyph unicode="&#xfb;" d="M0 512v1280h256v512h256v256h256v256h512v-256h256v-256h256v-512h256v-1536h-256v-256h-1280v256h-256v256h-256zM256 768h256v1024h-256v-1024zM512 512h768v256h-768v-256zM512 2048h256v256h-256v-256zM768 2304h256v256h-256v-256zM1024 2048h256v256h-256v-256z M1280 768h256v1024h-256v-1024z" />
<glyph unicode="&#xfc;" d="M0 512v1280h256v512h256v256h1024v-256h256v-512h256v-1536h-256v-256h-1280v256h-256v256h-256zM256 768h256v1024h-256v-1024zM512 512h768v256h-768v-256zM512 2048h256v256h-256v-256zM1024 2048h256v256h-256v-256zM1280 768h256v1024h-256v-1024z" />
<glyph unicode="&#xfd;" d="M512 2427v512h256v256h256v256h512v-256h256v-512h-256v-256h-256v-256h-512v256h-256zM768 2683h256v256h-256v-256zM1024 2939h256v256h-256v-256zM0 512v1280h256v256h512v-256h512v256h512v-256h256v-2048h-256v-256h-256v-256h-1024v256h-256v512h256v256h-256v256 h-256zM256 768h256v1024h-256v-1024zM512 0v-256h768v256h-768zM512 512h768v-512h256v1792h-256v-1024h-768v-256z" />
<glyph unicode="&#xff;" d="M0 512v1280h256v512h256v256h1024v-256h256v-512h256v-2048h-256v-256h-256v-256h-1024v256h-256v512h256v256h-256v256h-256zM256 768h256v1024h-256v-1024zM512 0v-256h768v256h-768zM512 512h768v-512h256v1792h-256v-1024h-768v-256zM512 2048h256v256h-256v-256z M1024 2048h256v256h-256v-256z" />
<glyph unicode="&#x152;" horiz-adv-x="2816" d="M0 512v1536h256v256h256v256h1792v-256h256v-256h256v-2048h-2304v256h-256v256h-256zM256 768h256v1280h-256v-1280zM512 512h768v256h-768v-256zM512 2048h768v256h-768v-256zM1280 768h256v512h768v256h-768v512h-256v-1280zM1536 512h768v256h-768v-256zM1536 2048 h768v256h-768v-256z" />
<glyph unicode="&#x153;" horiz-adv-x="3072" d="M0 512v1024h256v256h256v256h2048v-256h256v-256h256v-1536h-2560v256h-256v256h-256zM256 768h256v768h-256v-768zM512 512h768v256h-768v-256zM512 1536h768v256h-768v-256zM1280 768h256v256h1024v512h-256v-256h-768v256h-256v-768zM1536 512h1024v256h-1024v-256z M1536 1536h768v256h-768v-256z" />
<glyph unicode="&#x178;" horiz-adv-x="2560" d="M0 1536v768h256v256h256v256h256v256h1024v-256h256v-256h256v-256h256v-768h-256v-256h-256v-256h-256v-1024h-768v256h-256v768h-256v256h-256v256h-256zM256 1792h256v512h-256v-512zM512 1536h256v256h-256v-256zM768 1280h256v-768h256v768h256v256h-768v-256z M768 2560h256v256h-256v-256zM1280 2560h256v256h-256v-256zM1536 1536h256v256h-256v-256zM1792 1792h256v512h-256v-512z" />
<glyph unicode="&#x2c6;" horiz-adv-x="1536" d="M0 1536v512h256v256h256v256h512v-256h256v-256h256v-768h-1280v256h-256zM256 1792h256v256h-256v-256zM512 2048h256v256h-256v-256zM768 1792h256v256h-256v-256z" />
<glyph unicode="&#x2dc;" horiz-adv-x="1792" d="M0 1536v512h256v256h256v256h1024v-256h256v-512h-256v-512h-1280v256h-256zM256 1792h256v256h-256v-256zM512 2048h256v256h-256v-256zM768 1792h256v256h-256v-256zM1024 2048h256v256h-256v-256z" />
<glyph unicode="&#x2000;" horiz-adv-x="1792" />
<glyph unicode="&#x2001;" horiz-adv-x="3584" />
<glyph unicode="&#x2002;" horiz-adv-x="1792" />
<glyph unicode="&#x2003;" horiz-adv-x="3584" />
<glyph unicode="&#x2004;" horiz-adv-x="1193" />
<glyph unicode="&#x2005;" horiz-adv-x="894" />
<glyph unicode="&#x2006;" horiz-adv-x="595" />
<glyph unicode="&#x2007;" horiz-adv-x="595" />
<glyph unicode="&#x2008;" horiz-adv-x="446" />
<glyph unicode="&#x2009;" horiz-adv-x="716" />
<glyph unicode="&#x200a;" horiz-adv-x="198" />
<glyph unicode="&#x2010;" horiz-adv-x="1536" d="M0 1024v512h256v256h1024v-256h256v-768h-1280v256h-256zM256 1280h768v256h-768v-256z" />
<glyph unicode="&#x2011;" horiz-adv-x="1536" d="M0 1024v512h256v256h1024v-256h256v-768h-1280v256h-256zM256 1280h768v256h-768v-256z" />
<glyph unicode="&#x2012;" horiz-adv-x="1536" d="M0 1024v512h256v256h1024v-256h256v-768h-1280v256h-256zM256 1280h768v256h-768v-256z" />
<glyph unicode="&#x2013;" horiz-adv-x="1280" d="M0 1024v512h256v256h768v-256h256v-768h-1024v256h-256zM256 1280h512v256h-512v-256z" />
<glyph unicode="&#x2014;" d="M0 1024v512h256v256h1536v-256h256v-768h-1792v256h-256zM256 1280h1280v256h-1280v-256z" />
<glyph unicode="&#x2018;" horiz-adv-x="1024" d="M0 1536v768h256v256h512v-256h256v-1024h-768v256h-256zM256 1792h256v512h-256v-512z" />
<glyph unicode="&#x2019;" horiz-adv-x="1024" d="M0 1536v768h256v256h512v-256h256v-1024h-768v256h-256zM256 1792h256v512h-256v-512z" />
<glyph unicode="&#x201a;" horiz-adv-x="1024" d="M0 -256v768h256v256h512v-256h256v-1024h-768v256h-256zM256 0h256v512h-256v-512z" />
<glyph unicode="&#x201c;" horiz-adv-x="1536" d="M0 1536v768h256v256h1024v-256h256v-1024h-1280v256h-256zM256 1792h256v512h-256v-512zM768 1792h256v512h-256v-512z" />
<glyph unicode="&#x201d;" horiz-adv-x="1536" d="M0 1536v768h256v256h1024v-256h256v-1024h-1280v256h-256zM256 1792h256v512h-256v-512zM768 1792h256v512h-256v-512z" />
<glyph unicode="&#x201e;" horiz-adv-x="1536" d="M0 -256v768h256v256h1024v-256h256v-1024h-1280v256h-256zM256 0h256v512h-256v-512zM768 0h256v512h-256v-512z" />
<glyph unicode="&#x2022;" horiz-adv-x="1280" d="M0 1024v768h256v256h768v-256h256v-768h-256v-256h-768v256h-256zM256 1280h512v512h-512v-512z" />
<glyph unicode="&#x2026;" d="M0 256v512h256v256h1536v-256h256v-768h-1792v256h-256zM256 512h256v256h-256v-256zM768 512h256v256h-256v-256zM1280 512h256v256h-256v-256z" />
<glyph unicode="&#x202f;" horiz-adv-x="716" />
<glyph unicode="&#x2039;" horiz-adv-x="1280" d="M0 768v512h256v256h256v256h512v-256h256v-1280h-768v256h-256v256h-256zM256 1024h256v256h-256v-256zM512 768h256v256h-256v-256zM512 1280h256v256h-256v-256z" />
<glyph unicode="&#x203a;" horiz-adv-x="1280" d="M0 512v1024h256v256h512v-256h256v-256h256v-512h-256v-256h-256v-256h-512v256h-256zM256 768h256v256h-256v-256zM256 1280h256v256h-256v-256zM512 1024h256v256h-256v-256z" />
<glyph unicode="&#x205f;" horiz-adv-x="894" />
<glyph unicode="&#x2122;" horiz-adv-x="2816" d="M0 1792v512h256v256h1280v-256h512v256h512v-256h256v-1536h-768v256h-256v-256h-1280v256h-256v768h-256zM256 2048h256v-768h256v768h256v-768h256v512h256v256h-256v256h-1024v-256zM1536 1536h256v256h-256v-256zM1792 1792h256v-512h256v1024h-256v-256h-256v-256z " />
<glyph unicode="&#xe000;" horiz-adv-x="2050" d="M0 2050h2050v-2050h-2050v2050z" />
<glyph unicode="&#xfb01;" d="M0 1280v512h256v256h256v256h256v256h1024v-256h256v-2304h-1536v256h-256v1024h-256zM256 1536h256v-1024h256v1024h512v-1024h256v1280h-768v256h-256v-256h-256v-256zM768 2048h256v256h-256v-256zM1280 2048h256v256h-256v-256z" />
<glyph unicode="&#xfb02;" d="M0 1280v512h256v256h256v256h256v256h1024v-256h256v-2304h-1536v256h-256v1024h-256zM256 1536h256v-1024h256v1024h256v256h-256v256h-256v-256h-256v-256zM768 2048h512v-1536h256v1792h-768v-256z" />
<glyph unicode="&#xfb03;" horiz-adv-x="4608" d="M3584 256v2048h256v256h512v-256h256v-2304h-768v256h-256zM3840 512h256v1280h-256v-1280zM3840 2048h256v256h-256v-256zM1792 1280v512h256v256h256v256h256v256h768v-256h256v-1280h-512v-1024h-768v256h-256v1024h-256zM2048 1536h256v-1024h256v1024h512v256h-512 v256h-256v-256h-256v-256zM2560 2048h512v256h-512v-256zM0 1280v512h256v256h256v256h256v256h768v-256h256v-1280h-512v-1024h-768v256h-256v1024h-256zM256 1536h256v-1024h256v1024h512v256h-512v256h-256v-256h-256v-256zM768 2048h512v256h-512v-256z" />
<glyph unicode="&#xfb04;" horiz-adv-x="4608" d="M3584 256v2048h256v256h512v-256h256v-2304h-768v256h-256zM3840 512h256v1792h-256v-1792zM1792 1280v512h256v256h256v256h256v256h768v-256h256v-1280h-512v-1024h-768v256h-256v1024h-256zM2048 1536h256v-1024h256v1024h512v256h-512v256h-256v-256h-256v-256z M2560 2048h512v256h-512v-256zM0 1280v512h256v256h256v256h256v256h768v-256h256v-1280h-512v-1024h-768v256h-256v1024h-256zM256 1536h256v-1024h256v1024h512v256h-512v256h-256v-256h-256v-256zM768 2048h512v256h-512v-256z" />
</font>
</defs>
</svg>
